<svg width="1056" height="466" viewBox="0 0 1056 466" fill="none" xmlns="http://www.w3.org/2000/svg">
<g filter="url(#filter0_d_60_3)">
<mask id="path-1-outside-1_60_3" maskUnits="userSpaceOnUse" x="263" y="112" width="526" height="229" fill="black">
<rect fill="white" x="263" y="112" width="526" height="229"/>
<path d="M355.665 233.84L424.545 331H382.825L322.905 243.92L307.505 331H275.585L310.025 136.4H341.945L326.265 225.16L417.545 136.4H457.585L355.665 233.84ZM591.652 216.2L586.892 243.08H471.812L476.572 216.2H591.652ZM661.921 275.56C662.481 294.6 673.121 304.12 693.841 304.12C707.094 304.12 717.734 298.893 725.761 288.44C733.788 277.987 740.041 260.16 744.521 234.96C738.921 241.307 731.734 246.253 722.961 249.8C714.188 253.16 705.041 254.84 695.521 254.84C679.094 254.84 665.841 250.453 655.761 241.68C645.681 232.907 640.641 220.4 640.641 204.16C640.641 200.427 641.108 195.573 642.041 189.6C645.774 169.067 654.734 152.733 668.921 140.6C683.108 128.28 700.748 122.12 721.841 122.12C741.628 122.12 755.908 127.253 764.681 137.52C773.641 147.6 778.121 162.907 778.121 183.44C778.121 195.573 776.721 209.48 773.921 225.16C769.628 249.24 764.121 268.933 757.401 284.24C750.868 299.547 741.908 311.12 730.521 318.96C719.321 326.8 704.948 330.72 687.401 330.72C668.921 330.72 655.108 326.147 645.961 317C636.814 307.853 632.241 296.093 632.241 281.72C632.241 278.92 632.334 276.867 632.521 275.56H661.921ZM705.881 227.96C717.081 227.96 726.508 224.507 734.161 217.6C741.814 210.507 746.668 201.173 748.721 189.6C749.468 184.747 749.841 181.293 749.841 179.24C749.841 169.533 747.041 162.067 741.441 156.84C735.841 151.427 728.001 148.72 717.921 148.72C706.161 148.72 696.174 152.453 687.961 159.92C679.934 167.2 674.894 176.813 672.841 188.76C672.281 191.747 672.001 194.733 672.001 197.72C672.001 206.68 674.801 213.96 680.401 219.56C686.001 225.16 694.494 227.96 705.881 227.96Z"/>
</mask>
<path d="M355.665 233.84L348.754 226.612L342.513 232.579L347.507 239.623L355.665 233.84ZM424.545 331V341H443.892L432.702 325.217L424.545 331ZM382.825 331L374.586 336.669L377.567 341H382.825V331ZM322.905 243.92L331.143 238.251L317.308 218.145L313.057 242.179L322.905 243.92ZM307.505 331V341H315.891L317.352 332.741L307.505 331ZM275.585 331L265.738 329.257L263.659 341H275.585V331ZM310.025 136.4V126.4H301.639L300.178 134.657L310.025 136.4ZM341.945 136.4L351.792 138.14L353.866 126.4H341.945V136.4ZM326.265 225.16L316.417 223.42L311.028 253.924L333.236 232.329L326.265 225.16ZM417.545 136.4V126.4H413.484L410.573 129.231L417.545 136.4ZM457.585 136.4L464.495 143.628L482.515 126.4H457.585V136.4ZM347.507 239.623L416.387 336.783L432.702 325.217L363.822 228.057L347.507 239.623ZM424.545 321H382.825V341H424.545V321ZM391.063 325.331L331.143 238.251L314.666 249.589L374.586 336.669L391.063 325.331ZM313.057 242.179L297.657 329.259L317.352 332.741L332.752 245.661L313.057 242.179ZM307.505 321H275.585V341H307.505V321ZM285.432 332.743L319.872 138.143L300.178 134.657L265.738 329.257L285.432 332.743ZM310.025 146.4H341.945V126.4H310.025V146.4ZM332.097 134.66L316.417 223.42L336.112 226.9L351.792 138.14L332.097 134.66ZM333.236 232.329L424.516 143.569L410.573 129.231L319.293 217.991L333.236 232.329ZM417.545 146.4H457.585V126.4H417.545V146.4ZM450.674 129.172L348.754 226.612L362.575 241.068L464.495 143.628L450.674 129.172ZM591.652 216.2L601.499 217.944L603.578 206.2H591.652V216.2ZM586.892 243.08V253.08H595.277L596.739 244.824L586.892 243.08ZM471.812 243.08L461.965 241.336L459.886 253.08H471.812V243.08ZM476.572 216.2V206.2H468.187L466.725 214.456L476.572 216.2ZM581.805 214.456L577.045 241.336L596.739 244.824L601.499 217.944L581.805 214.456ZM586.892 233.08H471.812V253.08H586.892V233.08ZM481.659 244.824L486.419 217.944L466.725 214.456L461.965 241.336L481.659 244.824ZM476.572 226.2H591.652V206.2H476.572V226.2ZM661.921 275.56L671.917 275.266L671.631 265.56H661.921V275.56ZM725.761 288.44L717.83 282.35L717.83 282.35L725.761 288.44ZM744.521 234.96L754.367 236.71L760.606 201.616L737.023 228.344L744.521 234.96ZM722.961 249.8L726.538 259.139L726.624 259.106L726.709 259.071L722.961 249.8ZM655.761 241.68L649.196 249.223L649.196 249.223L655.761 241.68ZM642.041 189.6L632.202 187.811L632.18 187.933L632.161 188.056L642.041 189.6ZM668.921 140.6L675.421 148.2L675.449 148.175L675.478 148.15L668.921 140.6ZM764.681 137.52L757.079 144.017L757.142 144.091L757.207 144.164L764.681 137.52ZM773.921 225.16L764.077 223.402L764.076 223.405L773.921 225.16ZM757.401 284.24L748.245 280.22L748.224 280.267L748.204 280.314L757.401 284.24ZM730.521 318.96L724.85 310.724L724.818 310.745L724.786 310.768L730.521 318.96ZM645.961 317L653.032 309.929L645.961 317ZM632.521 275.56V265.56H623.848L622.622 274.146L632.521 275.56ZM734.161 217.6L740.861 225.024L740.91 224.979L740.959 224.934L734.161 217.6ZM748.721 189.6L758.567 191.347L758.587 191.234L758.605 191.121L748.721 189.6ZM741.441 156.84L734.491 164.03L734.554 164.091L734.618 164.151L741.441 156.84ZM687.961 159.92L694.679 167.327L694.688 167.319L687.961 159.92ZM672.841 188.76L682.67 190.603L682.684 190.528L682.697 190.454L672.841 188.76ZM680.401 219.56L687.472 212.489L680.401 219.56ZM651.925 275.854C652.258 287.161 655.673 297.292 663.653 304.432C671.484 311.439 682.114 314.12 693.841 314.12V294.12C684.848 294.12 679.798 292.041 676.989 289.528C674.329 287.148 672.144 282.999 671.917 275.266L651.925 275.854ZM693.841 314.12C710.182 314.12 723.761 307.465 733.693 294.53L717.83 282.35C711.708 290.322 704.007 294.12 693.841 294.12V314.12ZM733.693 294.53C743.243 282.092 749.823 262.268 754.367 236.71L734.675 233.21C730.259 258.052 724.332 273.881 717.83 282.35L733.693 294.53ZM737.023 228.344C732.566 233.395 726.719 237.495 719.213 240.529L726.709 259.071C736.75 255.012 745.276 249.218 752.019 241.576L737.023 228.344ZM719.385 240.461C711.768 243.378 703.835 244.84 695.521 244.84V264.84C706.247 264.84 716.607 262.942 726.538 259.139L719.385 240.461ZM695.521 244.84C680.932 244.84 670.194 240.985 662.326 234.137L649.196 249.223C661.488 259.922 677.257 264.84 695.521 264.84V244.84ZM662.326 234.137C654.893 227.667 650.641 218.186 650.641 204.16H630.641C630.641 222.614 636.469 238.146 649.196 249.223L662.326 234.137ZM650.641 204.16C650.641 201.16 651.025 196.878 651.921 191.144L632.161 188.056C631.19 194.269 630.641 199.693 630.641 204.16H650.641ZM651.88 191.389C655.253 172.835 663.189 158.661 675.421 148.2L662.421 133C646.279 146.806 636.296 165.298 632.202 187.811L651.88 191.389ZM675.478 148.15C687.62 137.606 702.841 132.12 721.841 132.12V112.12C698.654 112.12 678.595 118.954 662.364 133.05L675.478 148.15ZM721.841 132.12C740.095 132.12 750.954 136.849 757.079 144.017L772.283 131.023C760.862 117.658 743.161 112.12 721.841 112.12V132.12ZM757.207 144.164C763.873 151.663 768.121 164.12 768.121 183.44H788.121C788.121 161.693 783.409 143.537 772.155 130.876L757.207 144.164ZM768.121 183.44C768.121 194.834 766.803 208.134 764.077 223.402L783.765 226.918C786.639 210.826 788.121 196.312 788.121 183.44H768.121ZM764.076 223.405C759.864 247.029 754.537 265.888 748.245 280.22L766.558 288.26C773.705 271.979 779.391 251.451 783.766 226.915L764.076 223.405ZM748.204 280.314C742.261 294.237 734.384 304.159 724.85 310.724L736.192 327.196C749.431 318.081 759.474 304.856 766.598 288.166L748.204 280.314ZM724.786 310.768C715.687 317.137 703.477 320.72 687.401 320.72V340.72C706.419 340.72 722.955 336.463 736.256 327.152L724.786 310.768ZM687.401 320.72C670.428 320.72 659.625 316.522 653.032 309.929L638.89 324.071C650.591 335.772 667.414 340.72 687.401 340.72V320.72ZM653.032 309.929C645.978 302.874 642.241 293.764 642.241 281.72H622.241C622.241 298.423 627.651 312.832 638.89 324.071L653.032 309.929ZM642.241 281.72C642.241 278.991 642.34 277.535 642.421 276.974L622.622 274.146C622.328 276.198 622.241 278.849 622.241 281.72H642.241ZM632.521 285.56H661.921V265.56H632.521V285.56ZM705.881 237.96C719.324 237.96 731.205 233.738 740.861 225.024L727.461 210.176C721.811 215.275 714.838 217.96 705.881 217.96V237.96ZM740.959 224.934C750.409 216.175 756.184 204.781 758.567 191.347L738.875 187.853C737.152 197.566 733.219 204.838 727.363 210.266L740.959 224.934ZM758.605 191.121C759.352 186.264 759.841 182.136 759.841 179.24H739.841C739.841 180.451 739.583 183.23 738.837 188.079L758.605 191.121ZM759.841 179.24C759.841 167.549 756.402 157.125 748.264 149.529L734.618 164.151C737.68 167.009 739.841 171.518 739.841 179.24H759.841ZM748.391 149.65C740.426 141.95 729.802 138.72 717.921 138.72V158.72C726.2 158.72 731.257 160.903 734.491 164.03L748.391 149.65ZM717.921 138.72C703.835 138.72 691.405 143.275 681.234 152.521L694.688 167.319C700.944 161.632 708.487 158.72 717.921 158.72V138.72ZM681.243 152.513C671.366 161.471 665.37 173.194 662.986 187.066L682.697 190.454C684.419 180.433 688.503 172.929 694.679 167.327L681.243 152.513ZM663.012 186.917C662.34 190.501 662.001 194.104 662.001 197.72H682.001C682.001 195.362 682.222 192.992 682.67 190.603L663.012 186.917ZM662.001 197.72C662.001 208.952 665.602 218.903 673.33 226.631L687.472 212.489C684 209.017 682.001 204.408 682.001 197.72H662.001ZM673.33 226.631C681.495 234.796 693.009 237.96 705.881 237.96V217.96C695.98 217.96 690.508 215.524 687.472 212.489L673.33 226.631Z" fill="url(#paint0_linear_60_3)" mask="url(#path-1-outside-1_60_3)"/>
</g>
<defs>
<filter id="filter0_d_60_3" x="260.984" y="107.52" width="531.737" height="238.08" filterUnits="userSpaceOnUse" color-interpolation-filters="sRGB">
<feFlood flood-opacity="0" result="BackgroundImageFix"/>
<feColorMatrix in="SourceAlpha" type="matrix" values="0 0 0 0 0 0 0 0 0 0 0 0 0 0 0 0 0 0 127 0" result="hardAlpha"/>
<feOffset/>
<feGaussianBlur stdDeviation="7.3"/>
<feColorMatrix type="matrix" values="0 0 0 0 0.6 0 0 0 0 0.533333 0 0 0 0 1 0 0 0 1 0"/>
<feBlend mode="normal" in2="BackgroundImageFix" result="effect1_dropShadow_60_3"/>
<feBlend mode="normal" in="SourceGraphic" in2="effect1_dropShadow_60_3" result="shape"/>
</filter>
<linearGradient id="paint0_linear_60_3" x1="269" y1="233" x2="788" y2="233" gradientUnits="userSpaceOnUse">
<stop stop-color="#9988FF"/>
<stop offset="1" stop-color="#F0FFFE"/>
</linearGradient>
</defs>
</svg>
